<svg width="800" height="350" xmlns="http://www.w3.org/2000/svg">
<defs>
    
        <marker id="arrowhead" markerWidth="10" markerHeight="7" refX="9" refY="3.5" orient="auto">
            <polygon points="0 0, 10 3.5, 0 7" fill="#BD10E0" />
        </marker>
        
        <marker id="arrowhead-white" markerWidth="6" markerHeight="6" refX="5" refY="3" orient="auto">
            <polygon points="0 0, 6 3, 0 6" fill="#ffffff" />
        </marker>
        
        <marker id="arrowhead-white-rev" markerWidth="6" markerHeight="6" refX="1" refY="3" orient="auto">
            <polygon points="6 0, 0 3, 6 6" fill="#ffffff" />
        </marker>
        
        <g id="cursor">
            <path d="M0,0 L0,16 L4,12 L8,20 L10,19 L6,11 L12,11 Z" fill="black" stroke="white" stroke-width="1"/>
        </g>
        
</defs>
<rect width="100%" height="100%" fill="white" />
<rect x="50" y="40" width="500" height="200" rx="4" fill="#F8F9FA" fill-opacity="1.0" stroke="#DEE2E6" stroke-width="1"  /><text x="60" y="65" font-family="Arial, sans-serif" font-size="14" fill="#666" text-anchor="start" font-weight="normal" font-style="normal">Parent Container</text><rect x="190.0" y="110.0" width="220" height="60" rx="8" fill="#4A90E2" fill-opacity="1.0" stroke="none" stroke-width="0"  /><rect x="230.0" y="120.0" width="140" height="40" rx="0" fill="none" fill-opacity="0.7" stroke="white" stroke-width="1" stroke-dasharray="3,3" /><text x="300.0" y="147.0" font-family="Arial, sans-serif" font-size="20" fill="white" text-anchor="middle" font-weight="bold" font-style="normal">Button Label</text><line x1="195.0" y1="140.0" x2="225.0" y2="140.0" stroke="white" stroke-width="1.5"  marker-end="url(#arrowhead-white)" marker-start="url(#arrowhead-white-rev)" /><text x="210.0" y="160.0" font-family="Arial, sans-serif" font-size="10" fill="white" text-anchor="middle" font-weight="normal" font-style="normal">Pad</text><line x1="375.0" y1="140.0" x2="405.0" y2="140.0" stroke="white" stroke-width="1.5"  marker-end="url(#arrowhead-white)" marker-start="url(#arrowhead-white-rev)" /><text x="390.0" y="160.0" font-family="Arial, sans-serif" font-size="10" fill="white" text-anchor="middle" font-weight="normal" font-style="normal">Pad</text><line x1="580" y1="130.0" x2="375.0" y2="130.0" stroke="#BD10E0" stroke-width="2"  marker-end="url(#arrowhead)"  /><text x="590" y="135.0" font-family="Arial, sans-serif" font-size="16" fill="#BD10E0" text-anchor="start" font-weight="bold" font-style="normal">Label</text><text x="590" y="155.0" font-family="Arial, sans-serif" font-size="13" fill="#555" text-anchor="start" font-weight="normal" font-style="normal">Determines base width</text><use href="#cursor" x="280.0" y="160.0" /><line x1="285.0" y1="175.0" x2="285.0" y2="300" stroke="#BD10E0" stroke-width="2" stroke-dasharray="4,4"   /><text x="285.0" y="320" font-family="Arial, sans-serif" font-size="16" fill="#BD10E0" text-anchor="middle" font-weight="bold" font-style="normal">Action</text><text x="285.0" y="340" font-family="Arial, sans-serif" font-size="13" fill="#555" text-anchor="middle" font-weight="normal" font-style="normal">Click Execution</text>
</svg>