<svg width="650" height="300" xmlns="http://www.w3.org/2000/svg">
<defs>
    
        <marker id="arrowhead-purple" markerWidth="10" markerHeight="7" refX="9" refY="3.5" orient="auto">
            <polygon points="0 0, 10 3.5, 0 7" fill="#BD10E0" />
        </marker>
        
        <marker id="arrowhead-orange" markerWidth="10" markerHeight="7" refX="9" refY="3.5" orient="auto">
            <polygon points="0 0, 10 3.5, 0 7" fill="#FF9500" />
        </marker>
        
        <marker id="arrowhead-white" markerWidth="6" markerHeight="6" refX="5" refY="3" orient="auto">
            <polygon points="0 0, 6 3, 0 6" fill="#ffffff" />
        </marker>
        
        <marker id="arrowhead-white-rev" markerWidth="6" markerHeight="6" refX="1" refY="3" orient="auto">
            <polygon points="6 0, 0 3, 6 6" fill="#ffffff" />
        </marker>
        
        <g id="cursor">
            <path d="M0,0 L0,16 L4,12 L8,20 L10,19 L6,11 L12,11 Z" fill="black" stroke="white" stroke-width="1"/>
        </g>
        
</defs>
<rect width="100%" height="100%" fill="white" />
<rect x="50" y="50" width="400" height="160" rx="4" fill="#F8F9FA" fill-opacity="1.0" stroke="#DEE2E6" stroke-width="1"  /><text x="60" y="75" font-family="Arial, sans-serif" font-size="14" fill="#666" text-anchor="start" font-weight="normal" font-style="normal">Parent Container</text><rect x="70" y="126.0" width="360" height="8" rx="4" fill="#E0E0E0" fill-opacity="1.0" stroke="none" stroke-width="0"  /><rect x="70" y="126.0" width="216.0" height="8" rx="4" fill="#4A90E2" fill-opacity="1.0" stroke="none" stroke-width="0"  /><rect x="271.0" y="115.0" width="30" height="30" rx="15" fill="white" fill-opacity="1.0" stroke="#000000" stroke-width="0.5"  /><line x1="60" y1="170.0" x2="80" y2="170.0" stroke="#FF9500" stroke-width="1"   marker-start="url(#arrowhead-white-rev)" /><line x1="420" y1="170.0" x2="440" y2="170.0" stroke="#FF9500" stroke-width="1"  marker-end="url(#arrowhead-orange)"  /><text x="250.0" y="185.0" font-family="Arial, sans-serif" font-size="12" fill="#FF9500" text-anchor="middle" font-weight="normal" font-style="italic">Expands horizontally</text><line x1="70" y1="90.0" x2="430" y2="90.0" stroke="#BD10E0" stroke-width="1" stroke-dasharray="4,4"   /><line x1="70" y1="85.0" x2="70" y2="95.0" stroke="#BD10E0" stroke-width="1"    /><line x1="430" y1="85.0" x2="430" y2="95.0" stroke="#BD10E0" stroke-width="1"    /><text x="250.0" y="80.0" font-family="Arial, sans-serif" font-size="14" fill="#BD10E0" text-anchor="middle" font-weight="bold" font-style="normal">Range (Min ... Max)</text><line x1="500" y1="130.0" x2="306.0" y2="130.0" stroke="#BD10E0" stroke-width="2"  marker-end="url(#arrowhead-purple)"  /><text x="510" y="125.0" font-family="Arial, sans-serif" font-size="16" fill="#BD10E0" text-anchor="start" font-weight="bold" font-style="normal">Value</text><text x="510" y="145.0" font-family="Arial, sans-serif" font-size="13" fill="#555" text-anchor="start" font-weight="normal" font-style="normal">Current number</text>
</svg>