<svg width="700" height="400" xmlns="http://www.w3.org/2000/svg">
<defs>
    
        <marker id="arrowhead-purple" markerWidth="10" markerHeight="7" refX="9" refY="3.5" orient="auto">
            <polygon points="0 0, 10 3.5, 0 7" fill="#BD10E0" />
        </marker>
        
        <marker id="arrowhead-orange" markerWidth="10" markerHeight="7" refX="9" refY="3.5" orient="auto">
            <polygon points="0 0, 10 3.5, 0 7" fill="#FF9500" />
        </marker>
        
        <marker id="arrowhead-white" markerWidth="6" markerHeight="6" refX="5" refY="3" orient="auto">
            <polygon points="0 0, 6 3, 0 6" fill="#ffffff" />
        </marker>
        
        <marker id="arrowhead-white-rev" markerWidth="6" markerHeight="6" refX="1" refY="3" orient="auto">
            <polygon points="6 0, 0 3, 6 6" fill="#ffffff" />
        </marker>
        
        <g id="cursor">
            <path d="M0,0 L0,16 L4,12 L8,20 L10,19 L6,11 L12,11 Z" fill="black" stroke="white" stroke-width="1"/>
        </g>
        
</defs>
<rect width="100%" height="100%" fill="white" />
<rect x="50" y="60" width="180" height="220" rx="8" fill="#F0F0F0" fill-opacity="1.0" stroke="#ccc" stroke-width="1" stroke-dasharray="4,4" /><text x="140.0" y="80" font-family="Arial, sans-serif" font-size="16" fill="#333" text-anchor="middle" font-weight="bold" font-style="normal">VStack</text><rect x="80" y="110" width="120" height="30" rx="4" fill="#4A90E2" fill-opacity="1.0" stroke="none" stroke-width="0"  /><rect x="80" y="160" width="120" height="30" rx="4" fill="#4A90E2" fill-opacity="1.0" stroke="none" stroke-width="0"  /><rect x="80" y="210" width="120" height="30" rx="4" fill="#4A90E2" fill-opacity="1.0" stroke="none" stroke-width="0"  /><line x1="210" y1="110" x2="210" y2="160" stroke="#BD10E0" stroke-width="1"  marker-end="url(#arrowhead-purple)" marker-start="url(#arrowhead-white-rev)" /><text x="250" y="135" font-family="Arial, sans-serif" font-size="14" fill="#BD10E0" text-anchor="start" font-weight="normal" font-style="normal">Spacing</text><rect x="300" y="160" width="350" height="100" rx="8" fill="#F0F0F0" fill-opacity="1.0" stroke="#ccc" stroke-width="1" stroke-dasharray="4,4" /><text x="475.0" y="180" font-family="Arial, sans-serif" font-size="16" fill="#333" text-anchor="middle" font-weight="bold" font-style="normal">HStack</text><rect x="320" y="200" width="80" height="40" rx="4" fill="#4A90E2" fill-opacity="1.0" stroke="none" stroke-width="0"  /><rect x="420" y="200" width="80" height="40" rx="4" fill="#4A90E2" fill-opacity="1.0" stroke="none" stroke-width="0"  /><rect x="520" y="200" width="80" height="40" rx="4" fill="#4A90E2" fill-opacity="1.0" stroke="none" stroke-width="0"  /><text x="475.0" y="290" font-family="Arial, sans-serif" font-size="14" fill="#BD10E0" text-anchor="middle" font-weight="bold" font-style="normal">Alignment: Center</text><line x1="475.0" y1="275" x2="475.0" y2="250" stroke="#BD10E0" stroke-width="1"  marker-end="url(#arrowhead-purple)"  />
</svg>