<svg width="750" height="300" xmlns="http://www.w3.org/2000/svg">
<defs>
    
        <marker id="arrowhead-purple" markerWidth="10" markerHeight="7" refX="9" refY="3.5" orient="auto">
            <polygon points="0 0, 10 3.5, 0 7" fill="#BD10E0" />
        </marker>
        
        <marker id="arrowhead-orange" markerWidth="10" markerHeight="7" refX="9" refY="3.5" orient="auto">
            <polygon points="0 0, 10 3.5, 0 7" fill="#FF9500" />
        </marker>
        
        <marker id="arrowhead-white" markerWidth="6" markerHeight="6" refX="5" refY="3" orient="auto">
            <polygon points="0 0, 6 3, 0 6" fill="#ffffff" />
        </marker>
        
        <marker id="arrowhead-white-rev" markerWidth="6" markerHeight="6" refX="1" refY="3" orient="auto">
            <polygon points="6 0, 0 3, 6 6" fill="#ffffff" />
        </marker>
        
        <g id="cursor">
            <path d="M0,0 L0,16 L4,12 L8,20 L10,19 L6,11 L12,11 Z" fill="black" stroke="white" stroke-width="1"/>
        </g>
        
</defs>
<rect width="100%" height="100%" fill="white" />
<rect x="50" y="50" width="450" height="140" rx="4" fill="#F8F9FA" fill-opacity="1.0" stroke="#DEE2E6" stroke-width="1"  /><text x="60" y="75" font-family="Arial, sans-serif" font-size="14" fill="#666" text-anchor="start" font-weight="normal" font-style="normal">Parent Container</text><rect x="70" y="100.0" width="410" height="40" rx="4" fill="white" fill-opacity="1.0" stroke="#CCC" stroke-width="1"  /><text x="80" y="125.0" font-family="monospace" font-size="16" fill="#999" text-anchor="start" font-weight="normal" font-style="normal">Enter text...|</text><line x1="60" y1="155.0" x2="80" y2="155.0" stroke="#FF9500" stroke-width="1"   marker-start="url(#arrowhead-white-rev)" /><line x1="470" y1="155.0" x2="490" y2="155.0" stroke="#FF9500" stroke-width="1"  marker-end="url(#arrowhead-orange)"  /><text x="275.0" y="170.0" font-family="Arial, sans-serif" font-size="12" fill="#FF9500" text-anchor="middle" font-weight="normal" font-style="italic">Expands horizontally</text><line x1="200" y1="220" x2="200" y2="135.0" stroke="#BD10E0" stroke-width="2"  marker-end="url(#arrowhead-purple)"  /><text x="200" y="235" font-family="Arial, sans-serif" font-size="16" fill="#BD10E0" text-anchor="middle" font-weight="bold" font-style="normal">Prompt</text><text x="200" y="255" font-family="Arial, sans-serif" font-size="13" fill="#555" text-anchor="middle" font-weight="normal" font-style="normal">Placeholder Text</text><line x1="560" y1="120.0" x2="485" y2="120.0" stroke="#BD10E0" stroke-width="2"  marker-end="url(#arrowhead-purple)"  /><text x="570" y="115.0" font-family="Arial, sans-serif" font-size="16" fill="#BD10E0" text-anchor="start" font-weight="bold" font-style="normal">Text</text><text x="570" y="135.0" font-family="Arial, sans-serif" font-size="13" fill="#555" text-anchor="start" font-weight="normal" font-style="normal">Editable content</text>
</svg>