<svg width="600" height="250" xmlns="http://www.w3.org/2000/svg">
<defs>
    
        <marker id="arrowhead-purple" markerWidth="10" markerHeight="7" refX="9" refY="3.5" orient="auto">
            <polygon points="0 0, 10 3.5, 0 7" fill="#BD10E0" />
        </marker>
        
        <marker id="arrowhead-orange" markerWidth="10" markerHeight="7" refX="9" refY="3.5" orient="auto">
            <polygon points="0 0, 10 3.5, 0 7" fill="#FF9500" />
        </marker>
        
        <marker id="arrowhead-white" markerWidth="6" markerHeight="6" refX="5" refY="3" orient="auto">
            <polygon points="0 0, 6 3, 0 6" fill="#ffffff" />
        </marker>
        
        <marker id="arrowhead-white-rev" markerWidth="6" markerHeight="6" refX="1" refY="3" orient="auto">
            <polygon points="6 0, 0 3, 6 6" fill="#ffffff" />
        </marker>
        
        <g id="cursor">
            <path d="M0,0 L0,16 L4,12 L8,20 L10,19 L6,11 L12,11 Z" fill="black" stroke="white" stroke-width="1"/>
        </g>
        
</defs>
<rect width="100%" height="100%" fill="white" />
<rect x="50" y="40" width="350" height="140" rx="4" fill="#F8F9FA" fill-opacity="1.0" stroke="#DEE2E6" stroke-width="1"  /><text x="60" y="65" font-family="Arial, sans-serif" font-size="14" fill="#666" text-anchor="start" font-weight="normal" font-style="normal">Parent Container</text><text x="110" y="115.0" font-family="Arial, sans-serif" font-size="20" fill="#333" text-anchor="start" font-weight="bold" font-style="normal">Wi-Fi</text><rect x="300" y="93.0" width="60" height="34" rx="17" fill="#34C759" fill-opacity="1.0" stroke="none" stroke-width="0"  /><rect x="328" y="95.0" width="30" height="30" rx="15" fill="white" fill-opacity="1.0" stroke="none" stroke-width="0"  /><line x1="50" y1="170.0" x2="120" y2="130.0" stroke="#BD10E0" stroke-width="2"  marker-end="url(#arrowhead-purple)"  /><text x="50" y="185.0" font-family="Arial, sans-serif" font-size="16" fill="#BD10E0" text-anchor="middle" font-weight="bold" font-style="normal">Label</text><line x1="500" y1="110.0" x2="365" y2="110.0" stroke="#BD10E0" stroke-width="2"  marker-end="url(#arrowhead-purple)"  /><text x="510" y="105.0" font-family="Arial, sans-serif" font-size="16" fill="#BD10E0" text-anchor="start" font-weight="bold" font-style="normal">State</text><text x="510" y="125.0" font-family="Arial, sans-serif" font-size="13" fill="#555" text-anchor="start" font-weight="normal" font-style="normal">On / Off</text>
</svg>